<svg width="100" height="100" viewBox="0 0 100 100" fill="none" xmlns="http://www.w3.org/2000/svg">
<rect width="100" height="100" rx="14" fill="black"/>
<path d="M78.75 20H22.0833C18.1875 20 15.0354 23.1875 15.0354 27.0833L15.0015 82.417C15.0009 83.3082 16.0784 83.7549 16.7086 83.1247L28.5809 71.2525C28.956 70.8774 29.4647 70.6667 29.9951 70.6667H78.75C82.6458 70.6667 85.8333 67.4792 85.8333 63.5833V27.0833C85.8333 23.1875 82.6458 20 78.75 20ZM39.7917 47.875C39.7917 48.9796 38.8962 49.875 37.7917 49.875H34.7083C33.6038 49.875 32.7083 48.9796 32.7083 47.875V44.7917C32.7083 43.6871 33.6038 42.7917 34.7083 42.7917H37.7917C38.8962 42.7917 39.7917 43.6871 39.7917 44.7917V47.875ZM53.9583 47.875C53.9583 48.9796 53.0629 49.875 51.9583 49.875H48.875C47.7704 49.875 46.875 48.9796 46.875 47.875V44.7917C46.875 43.6871 47.7704 42.7917 48.875 42.7917H51.9583C53.0629 42.7917 53.9583 43.6871 53.9583 44.7917V47.875ZM68.125 47.875C68.125 48.9796 67.2296 49.875 66.125 49.875H63.0417C61.9371 49.875 61.0417 48.9796 61.0417 47.875V44.7917C61.0417 43.6871 61.9371 42.7917 63.0417 42.7917H66.125C67.2296 42.7917 68.125 43.6871 68.125 44.7917V47.875Z" fill="white"/>
</svg>
